<?xml version="1.0" standalone="no"?>
<!DOCTYPE svg PUBLIC "-//W3C//DTD SVG 20010904//EN"
 "http://www.w3.org/TR/2001/REC-SVG-20010904/DTD/svg10.dtd">
<svg version="1.0" xmlns="http://www.w3.org/2000/svg"
 width="216.000000pt" height="240.000000pt" viewBox="0 0 216.000000 240.000000"
 preserveAspectRatio="xMidYMid meet">

<g transform="translate(0.000000,240.000000) scale(0.100000,-0.100000)"
fill="#000000" stroke="none">
<path d="M917 2304 c-4 -4 -7 -52 -7 -106 l0 -98 -71 0 -70 0 3 -47 3 -48 120
0 120 0 0 150 0 150 -45 3 c-25 2 -49 0 -53 -4z"/>
<path d="M1070 2267 c0 -39 5 -48 60 -102 33 -33 60 -63 60 -67 0 -4 -27 -8
-60 -8 l-60 0 0 -45 0 -46 138 3 137 3 3 33 c3 28 -6 42 -62 105 l-66 72 60 3
60 3 0 44 0 45 -135 0 -135 0 0 -43z"/>
</g>
</svg>
